<svg xmlns="http://www.w3.org/2000/svg" width="28" height="28" fill="none"><path fill="#E5E5E5" d="M0 0h28v28H0z"/><g clip-path="url(#a)"><path fill="#fff" d="M-335-593h768v1896h-768z"/><path fill="#fff" d="M-335-271h768V965h-768z"/><g filter="url(#b)"><path fill="#FDFDFD" fill-rule="evenodd" d="M-305-181c0-9.428 0-14.142 2.929-17.071C-299.142-201-294.428-201-285-201H14c9.428 0 14.142 0 17.071 2.929C34-195.142 34-190.428 34-181V36c0 9.428 0 14.142-2.929 17.071C28.142 56 23.428 56 14 56h-299c-9.428 0-14.142 0-17.071-2.929C-305 50.142-305 45.428-305 36v-217Z" clip-rule="evenodd"/></g><g filter="url(#c)"><circle cx="14" cy="11" r="8" fill="#2BE080"/></g><path fill="#fff" fill-rule="evenodd" d="M14 17a6 6 0 1 0 0-12 6 6 0 0 0 0 12Zm0 2a8 8 0 1 0 0-16 8 8 0 0 0 0 16Z" clip-rule="evenodd"/></g><defs><filter id="b" width="387" height="305" x="-329" y="-209" color-interpolation-filters="sRGB" filterUnits="userSpaceOnUse"><feFlood flood-opacity="0" result="BackgroundImageFix"/><feColorMatrix in="SourceAlpha" result="hardAlpha" values="0 0 0 0 0 0 0 0 0 0 0 0 0 0 0 0 0 0 127 0"/><feOffset dy="16"/><feGaussianBlur stdDeviation="12"/><feColorMatrix values="0 0 0 0 0 0 0 0 0 0 0 0 0 0 0 0 0 0 0.05 0"/><feBlend in2="BackgroundImageFix" mode="multiply" result="effect1_dropShadow_1_298"/><feBlend in="SourceGraphic" in2="effect1_dropShadow_1_298" result="shape"/></filter><filter id="c" width="28" height="28" x="0" y="0" color-interpolation-filters="sRGB" filterUnits="userSpaceOnUse"><feFlood flood-opacity="0" result="BackgroundImageFix"/><feColorMatrix in="SourceAlpha" result="hardAlpha" values="0 0 0 0 0 0 0 0 0 0 0 0 0 0 0 0 0 0 127 0"/><feOffset dy="3"/><feGaussianBlur stdDeviation="3"/><feColorMatrix values="0 0 0 0 0 0 0 0 0 0 0 0 0 0 0 0 0 0 0.09 0"/><feBlend in2="BackgroundImageFix" result="effect1_dropShadow_1_298"/><feBlend in="SourceGraphic" in2="effect1_dropShadow_1_298" result="shape"/></filter><clipPath id="a"><path fill="#fff" d="M-335-593h768v1896h-768z"/></clipPath></defs></svg>